# xmcd
# 
# Track frame offsets:
#     150
#     22160
#     42923
#     64839
#     85785
# 
# Disc length: 1418
# 
# Revision: 0
# Processed by: cddbd v1.5.2PL0 Copyright (c) Steve Scherf et al.
# Submitted via: fre:ac v1.0.17
# 
DISCID=3b058805
DTITLE=ヨコヤマとヤスシ - ひまわり
DYEAR=2008
DGENRE=JPop
TTITLE0=ひまわり
TTITLE1=らぶれたぁ
TTITLE2=ひまわり（instrumental）
TTITLE3=らぶれたぁ（instrumental）
TTITLE4=愛を歌おう
EXTD=
EXTT0=
EXTT1=
EXTT2=
EXTT3=
EXTT4=
PLAYORDER=
